<svg xmlns="http://www.w3.org/2000/svg" width="561" height="379" viewBox="0 0 561 379" fill="none"><rect width="560.333" height="379" fill="#FAE4FA"></rect><g clip-path="url(#clip0_2163_10909)"><path d="M77 147C53.5187 147 34.5 166.019 34.5 189.5C34.5 212.981 53.5187 232 77 232C100.481 232 119.5 212.981 119.5 189.5C119.5 166.019 100.481 147 77 147ZM64.25 210.75H55.75V168.25H64.25V210.75ZM98.25 210.75H72.75V202.25H98.25V210.75ZM98.25 193.75H72.75V185.25H98.25V193.75ZM98.25 176.75H72.75V168.25H98.25V176.75Z" fill="black"></path><path d="M157.585 202.718C159.88 205.055 162.792 206.224 166.278 206.224C169.211 206.224 171.613 205.608 173.483 204.375C175.375 203.143 176.586 201.4 177.16 199.148H186.108C185.322 203.589 183.133 207.138 179.519 209.815C175.927 212.493 171.507 213.81 166.278 213.81C162.07 213.81 158.371 212.896 155.183 211.069C152.016 209.241 149.529 206.776 147.765 203.695C146.001 200.614 145.087 197.256 145.023 193.665H153.717C153.993 197.384 155.289 200.401 157.606 202.739L157.585 202.718ZM153.546 190.881C153.546 189.925 153.653 188.671 153.887 187.078H176.735C176.501 184.039 175.396 181.595 173.398 179.746C171.4 177.898 168.743 176.963 165.428 176.963C162.325 176.963 159.795 177.855 157.797 179.661C155.799 181.468 154.503 183.933 153.865 187.078H145.172C145.682 183.869 146.809 180.958 148.552 178.344C150.295 175.73 152.611 173.669 155.502 172.181C158.393 170.694 161.708 169.95 165.406 169.95C169.742 169.95 173.441 170.885 176.501 172.776C179.562 174.668 181.879 177.133 183.409 180.193C184.961 183.253 185.726 186.61 185.726 190.265C185.726 191.285 185.662 192.411 185.556 193.644H153.674C153.568 192.305 153.504 191.37 153.504 190.86L153.546 190.881Z" fill="black"></path><path d="M191.995 160.43H185.258V152.674H201.029V213.13H191.995V160.43Z" fill="black"></path><path d="M218.649 202.718C220.945 205.055 223.857 206.224 227.342 206.224C230.276 206.224 232.677 205.608 234.548 204.375C236.439 203.143 237.651 201.4 238.225 199.148H247.173C246.386 203.589 244.197 207.138 240.584 209.815C236.992 212.493 232.571 213.81 227.342 213.81C223.134 213.81 219.436 212.896 216.248 211.069C213.081 209.241 210.594 206.776 208.83 203.695C207.066 200.614 206.152 197.256 206.088 193.665H214.781C215.057 197.384 216.354 200.401 218.671 202.739L218.649 202.718ZM214.611 190.881C214.611 189.925 214.717 188.671 214.951 187.078H237.8C237.566 184.039 236.461 181.595 234.463 179.746C232.465 177.898 229.808 176.963 226.492 176.963C223.389 176.963 220.86 177.855 218.862 179.661C216.864 181.468 215.567 183.933 214.93 187.078H206.237C206.747 183.869 207.873 180.958 209.616 178.344C211.359 175.73 213.676 173.669 216.566 172.181C219.457 170.694 222.773 169.95 226.471 169.95C230.807 169.95 234.505 170.885 237.566 172.776C240.626 174.668 242.943 177.133 244.473 180.193C246.025 183.253 246.79 186.61 246.79 190.265C246.79 191.285 246.726 192.411 246.62 193.644H214.738C214.632 192.305 214.568 191.37 214.568 190.86L214.611 190.881Z" fill="black"></path><path d="M255.716 178.323H248.979V170.652H264.664V177.813C265.685 175.39 267.279 173.478 269.468 172.075C271.657 170.673 274.271 169.972 277.311 169.972C280.52 169.972 283.347 170.737 285.791 172.245C288.236 173.754 289.872 175.837 290.722 178.493C291.679 176.028 293.464 173.988 296.078 172.373C298.693 170.779 301.541 169.972 304.644 169.972C309.256 169.972 312.912 171.438 315.611 174.349C318.311 177.282 319.65 181.149 319.65 185.994V213.152H310.702V188.523C310.702 185.272 309.915 182.658 308.342 180.682C306.769 178.705 304.665 177.728 302.008 177.728C299.033 177.728 296.631 178.918 294.846 181.277C293.039 183.635 292.146 186.504 292.146 189.883V213.152H283.113V188.523C283.113 185.272 282.348 182.658 280.796 180.682C279.245 178.705 277.162 177.728 274.505 177.728C271.572 177.728 269.213 178.918 267.385 181.319C265.557 183.699 264.643 186.568 264.643 189.883V213.152H255.695V178.323H255.716Z" fill="black"></path><path d="M337.184 202.718C339.48 205.055 342.392 206.224 345.878 206.224C348.811 206.224 351.212 205.608 353.083 204.375C354.974 203.143 356.186 201.4 356.76 199.148H365.708C364.922 203.589 362.732 207.138 359.119 209.815C355.527 212.493 351.106 213.81 345.878 213.81C341.669 213.81 337.971 212.896 334.783 211.069C331.616 209.241 329.129 206.776 327.365 203.695C325.601 200.614 324.687 197.256 324.623 193.665H333.316C333.592 197.384 334.889 200.401 337.206 202.739L337.184 202.718ZM333.146 190.881C333.146 189.925 333.252 188.671 333.486 187.078H356.335C356.101 184.039 354.996 181.595 352.998 179.746C351 177.898 348.343 176.963 345.027 176.963C341.924 176.963 339.395 177.855 337.397 179.661C335.399 181.468 334.103 183.933 333.465 187.078H324.772C325.282 183.869 326.408 180.958 328.151 178.344C329.894 175.73 332.211 173.669 335.101 172.181C337.992 170.694 341.308 169.95 345.006 169.95C349.342 169.95 353.04 170.885 356.101 172.776C359.162 174.668 361.478 177.133 363.009 180.193C364.56 183.253 365.325 186.61 365.325 190.265C365.325 191.285 365.262 192.411 365.155 193.644H333.274C333.167 192.305 333.104 191.37 333.104 190.86L333.146 190.881Z" fill="black"></path><path d="M373.892 178.323H367.154V170.652H382.84V177.813C383.967 175.284 385.731 173.35 388.111 171.99C390.492 170.652 393.276 169.972 396.422 169.972C401.204 169.972 405.03 171.523 407.942 174.647C410.832 177.77 412.278 181.85 412.278 186.908V213.13H403.244V188.757C403.244 185.548 402.373 182.977 400.63 181C398.887 179.024 396.592 178.047 393.722 178.047C390.577 178.047 387.962 179.173 385.922 181.425C383.86 183.678 382.84 186.547 382.84 190.032V213.13H373.892V178.323Z" fill="black"></path><path d="M428.069 209.348C425.455 206.819 424.137 203.334 424.137 198.893V178.323H415.529V170.652H424.137V157.498H433.085V170.652H445.392V178.323H433.085V198.553C433.085 200.742 433.659 202.442 434.807 203.653C435.955 204.864 437.549 205.459 439.568 205.459H445.392V213.131H438.654C434.212 213.131 430.684 211.856 428.069 209.327V209.348Z" fill="black"></path><path d="M458.676 210.984C455.339 209.093 452.724 206.5 450.833 203.185C448.941 199.87 448.006 196.109 448.006 191.88C448.006 187.651 448.941 183.89 450.833 180.575C452.724 177.26 455.339 174.668 458.676 172.776C462.013 170.885 465.796 169.95 470.026 169.95C474.255 169.95 478.017 170.885 481.375 172.776C484.712 174.668 487.327 177.26 489.218 180.575C491.11 183.89 492.045 187.651 492.045 191.88C492.045 196.109 491.11 199.87 489.218 203.185C487.327 206.5 484.712 209.093 481.375 210.984C478.038 212.875 474.255 213.81 470.026 213.81C465.796 213.81 462.034 212.875 458.676 210.984ZM479.335 202.059C481.715 199.445 482.927 196.066 482.927 191.901C482.927 187.736 481.737 184.358 479.335 181.744C476.954 179.13 473.83 177.813 470.026 177.813C466.221 177.813 463.118 179.109 460.737 181.744C458.378 184.358 457.188 187.736 457.188 191.901C457.188 196.066 458.378 199.445 460.737 202.059C463.097 204.673 466.2 205.99 470.026 205.99C473.851 205.99 476.954 204.694 479.335 202.059Z" fill="black"></path><path d="M500.271 178.323H493.533V170.651H509.219V178.578C510.239 175.815 511.621 173.818 513.385 172.543C515.149 171.268 517.508 170.651 520.42 170.651H525.479V178.323H519.145C515.659 178.323 513.13 179.683 511.557 182.403C509.984 185.123 509.198 188.863 509.198 193.58V213.151H500.25V178.323H500.271Z" fill="black"></path></g><defs><clipPath id="clip0_2163_10909"><rect width="491" height="85" fill="white" transform="translate(34.5 147)"></rect></clipPath></defs></svg>